<svg id="bag-happy" xmlns="http://www.w3.org/2000/svg" width="41.238" height="41.243" viewBox="0 0 41.238 41.243">
  <g id="ic-shop">
    <path id="Vector" d="M35.547,7.387h-.825L27.753.418a1.456,1.456,0,0,0-2.041,0,1.456,1.456,0,0,0,0,2.041L30.64,7.387H10.6l4.928-4.928a1.456,1.456,0,0,0,0-2.041,1.456,1.456,0,0,0-2.041,0L6.536,7.387H5.711C3.856,7.387,0,7.387,0,12.665c0,2,.412,3.32,1.278,4.186a3.328,3.328,0,0,0,1.732.928,7.974,7.974,0,0,0,1.856.165H36.372a8.611,8.611,0,0,0,1.814-.165c1.732-.412,3.052-1.65,3.052-5.113C41.238,7.387,37.382,7.387,35.547,7.387Z" fill="#fbd400"/>
    <path id="Vector-2" data-name="Vector" d="M31.306,0H2.069A2.059,2.059,0,0,0,.028,2.392L1.76,12.99c.577,3.546,2.124,7.629,8.99,7.629H22.317c6.949,0,8.186-3.485,8.928-7.382L33.327,2.454A2.055,2.055,0,0,0,31.306,0ZM16.77,15.464A8.782,8.782,0,0,1,8.007,6.7a1.546,1.546,0,1,1,3.093,0,5.67,5.67,0,1,0,11.34,0,1.546,1.546,0,1,1,3.093,0A8.782,8.782,0,0,1,16.77,15.464Z" transform="translate(3.849 20.624)" fill="#923aff"/>
  </g>
</svg>
