<svg id="ic-succes" xmlns="http://www.w3.org/2000/svg" width="206.385" height="206.385" viewBox="0 0 206.385 206.385">
  <path id="Vector" d="M75.2,3.805c5.934-5.074,15.651-5.074,21.67,0l13.587,11.7a19.06,19.06,0,0,0,10.835,4.042h14.619a16.662,16.662,0,0,1,16.6,16.6V50.758a19.29,19.29,0,0,0,4.042,10.835l11.7,13.587c5.074,5.934,5.074,15.651,0,21.67l-11.7,13.587a19.06,19.06,0,0,0-4.042,10.835v14.619a16.662,16.662,0,0,1-16.6,16.6H121.294a19.29,19.29,0,0,0-10.835,4.042l-13.587,11.7c-5.934,5.074-15.651,5.074-21.67,0l-13.587-11.7a19.059,19.059,0,0,0-10.835-4.042H35.9a16.662,16.662,0,0,1-16.6-16.6v-14.7a19.568,19.568,0,0,0-3.956-10.749L3.741,96.765a17.315,17.315,0,0,1,0-21.5L15.35,61.593a19.568,19.568,0,0,0,3.956-10.749V36.053a16.662,16.662,0,0,1,16.6-16.6H50.779a19.29,19.29,0,0,0,10.835-4.042Z" transform="translate(17.242 17.263)" fill="#00b237"/>
  <path id="Vector-2" data-name="Vector" d="M27.239,54.413a6.443,6.443,0,0,1-4.558-1.892L1.87,31.71a6.446,6.446,0,0,1,9.115-9.115L27.239,38.848,64.216,1.87a6.446,6.446,0,0,1,9.115,9.115L31.8,52.521A6.443,6.443,0,0,1,27.239,54.413Z" transform="translate(65.549 76.04)" fill="#fff"/>
  <path id="Vector-3" data-name="Vector" d="M0,0H206.386V206.386H0Z" fill="none" opacity="0"/>
</svg>
