<svg id="scanner" xmlns="http://www.w3.org/2000/svg" width="41.367" height="41.367" viewBox="0 0 41.367 41.367">
  <g id="ic-scan">
    <path id="Vector" d="M39.923,16.354a1.454,1.454,0,0,1-1.443-1.443V11.063c0-4.964-3.213-8.177-8.177-8.177H11.063C6.1,2.886,2.886,6.1,2.886,11.063v3.848a1.454,1.454,0,0,1-1.443,1.443A1.454,1.454,0,0,1,0,14.911V11.063C0,4.444,4.444,0,11.063,0H30.3c6.619,0,11.063,4.444,11.063,11.063v3.848A1.454,1.454,0,0,1,39.923,16.354Z" fill="#923aff"/>
    <path id="Vector-2" data-name="Vector" d="M30.3,16.354H11.063C4.444,16.354,0,11.91,0,5.291V1.443A1.454,1.454,0,0,1,1.443,0,1.454,1.454,0,0,1,2.886,1.443V5.291c0,4.964,3.213,8.177,8.177,8.177H30.3c4.964,0,8.177-3.213,8.177-8.177V1.443a1.443,1.443,0,1,1,2.886,0V5.291C41.367,11.91,36.922,16.354,30.3,16.354Z" transform="translate(0 25.012)" fill="#923aff"/>
    <path id="Vector-3" data-name="Vector" d="M39.923,2.886H1.443A1.454,1.454,0,0,1,0,1.443,1.454,1.454,0,0,1,1.443,0h38.48a1.454,1.454,0,0,1,1.443,1.443A1.454,1.454,0,0,1,39.923,2.886Z" transform="translate(0 19.24)" fill="#923aff"/>
    <path id="Vector-4" data-name="Vector" d="M18.278,7.7H.962A.953.953,0,0,1,0,6.734V2.886A2.882,2.882,0,0,1,2.886,0H16.354A2.882,2.882,0,0,1,19.24,2.886V6.734A.953.953,0,0,1,18.278,7.7Z" transform="translate(11.063 7.215)" fill="#fbd400"/>
    <path id="Vector-5" data-name="Vector" d="M18.278,0H.962A.953.953,0,0,0,0,.962V4.81A2.882,2.882,0,0,0,2.886,7.7H16.354A2.9,2.9,0,0,0,19.24,4.81V.962A.953.953,0,0,0,18.278,0Z" transform="translate(11.063 26.455)" fill="#fbd400"/>
  </g>
</svg>
